<svg width="40" height="40" viewBox="0 0 40 40" fill="none" xmlns="http://www.w3.org/2000/svg">
<path d="M20 7.5V10M20 10V12.5M20 10H22.5M20 10H17.5" stroke="black" stroke-opacity="0.8" stroke-width="2" stroke-linecap="round"/>
<path d="M14.3093 4.30969C13.333 5.28599 13.333 6.85734 13.333 10C13.333 13.1427 13.333 14.7141 14.3093 15.6904C15.2856 16.6667 16.857 16.6667 19.9997 16.6667C23.1423 16.6667 24.7137 16.6667 25.69 15.6904C26.6663 14.7141 26.6663 13.1427 26.6663 10C26.6663 6.85734 26.6663 5.28599 25.69 4.30969C24.7137 3.33337 23.1423 3.33337 19.9997 3.33337C16.857 3.33337 15.2856 3.33337 14.3093 4.30969Z" stroke="black" stroke-opacity="0.8" stroke-width="2" stroke-linecap="round" stroke-linejoin="round"/>
<path d="M6.66699 36.6667V19.9512C6.66699 14.4354 6.66699 11.6775 8.37554 9.96397C9.46141 8.87492 10.9679 8.47802 13.3337 8.33337M33.3337 36.6667V19.9512C33.3337 14.4354 33.3337 11.6775 31.6252 9.96397C30.5392 8.87492 29.0327 8.47802 26.667 8.33337" stroke="black" stroke-opacity="0.8" stroke-width="2" stroke-linecap="round" stroke-linejoin="round"/>
<path d="M5 36.6666H35" stroke="black" stroke-opacity="0.8" stroke-width="2" stroke-linecap="round" stroke-linejoin="round"/>
<path d="M15.833 36.6667V32.5C15.833 30.9424 15.833 30.1635 16.1679 29.5834C16.3874 29.2034 16.703 28.8877 17.083 28.6684C17.6632 28.3334 18.442 28.3334 19.9997 28.3334C21.5573 28.3334 22.3362 28.3334 22.9163 28.6684C23.2963 28.8877 23.612 29.2034 23.8313 29.5834C24.1663 30.1635 24.1663 30.9424 24.1663 32.5V36.6667" stroke="black" stroke-opacity="0.8" stroke-width="2" stroke-linecap="round"/>
<path d="M13.3479 21.6666H13.333M19.9997 21.6666H19.9847M26.6682 21.6666H26.6533" stroke="black" stroke-opacity="0.8" stroke-width="2.5" stroke-linecap="round" stroke-linejoin="round"/>
</svg>
