<svg width="54" height="55" viewBox="0 0 54 55" fill="none" xmlns="http://www.w3.org/2000/svg">
<rect y="0.5" width="54" height="54" rx="8" fill="#F4A7B9" fill-opacity="0.1"/>
<rect x="0.5" y="1" width="53" height="53" rx="7.5" stroke="#F4A7B9" stroke-opacity="0.5"/>
<path d="M38.334 25.5V37.5C38.334 38.1212 38.334 38.4319 38.2325 38.6769C38.0972 39.0036 37.8376 39.2632 37.5109 39.3985C37.2659 39.5 36.9552 39.5 36.334 39.5C35.7128 39.5 35.4021 39.5 35.1571 39.3985C34.8304 39.2632 34.5708 39.0036 34.4355 38.6769C34.334 38.4319 34.334 38.1212 34.334 37.5V25.5C34.334 24.8788 34.334 24.5681 34.4355 24.3231C34.5708 23.9964 34.8304 23.7368 35.1571 23.6015C35.4021 23.5 35.7128 23.5 36.334 23.5C36.9552 23.5 37.2659 23.5 37.5109 23.6015C37.8376 23.7368 38.0972 23.9964 38.2325 24.3231C38.334 24.5681 38.334 24.8788 38.334 25.5Z" stroke="black" stroke-opacity="0.85" stroke-width="1.8" stroke-linejoin="round"/>
<path d="M33 15.5H37V19.5" stroke="black" stroke-opacity="0.85" stroke-width="1.8" stroke-linecap="round" stroke-linejoin="round"/>
<path d="M36.3333 16.1667C36.3333 16.1667 31 22.8334 17 27.5" stroke="black" stroke-opacity="0.85" stroke-width="1.8" stroke-linecap="round" stroke-linejoin="round"/>
<path d="M29 30.1667V37.5C29 38.1212 29 38.4319 28.8985 38.677C28.7632 39.0036 28.5036 39.2632 28.1769 39.3986C27.9319 39.5 27.6212 39.5 27 39.5C26.3788 39.5 26.0681 39.5 25.8231 39.3986C25.4964 39.2632 25.2368 39.0036 25.1015 38.677C25 38.4319 25 38.1212 25 37.5V30.1667C25 29.5455 25 29.2348 25.1015 28.9898C25.2368 28.6631 25.4964 28.4035 25.8231 28.2682C26.0681 28.1667 26.3788 28.1667 27 28.1667C27.6212 28.1667 27.9319 28.1667 28.1769 28.2682C28.5036 28.4035 28.7632 28.6631 28.8985 28.9898C29 29.2348 29 29.5455 29 30.1667Z" stroke="black" stroke-opacity="0.85" stroke-width="1.8" stroke-linejoin="round"/>
<path d="M19.666 33.5V37.5C19.666 38.1212 19.666 38.4319 19.5645 38.6769C19.4292 39.0036 19.1696 39.2632 18.8429 39.3985C18.5979 39.5 18.2873 39.5 17.666 39.5C17.0448 39.5 16.7341 39.5 16.4891 39.3985C16.1624 39.2632 15.9028 39.0036 15.7675 38.6769C15.666 38.4319 15.666 38.1212 15.666 37.5V33.5C15.666 32.8788 15.666 32.5681 15.7675 32.3231C15.9028 31.9964 16.1624 31.7368 16.4891 31.6015C16.7341 31.5 17.0448 31.5 17.666 31.5C18.2873 31.5 18.5979 31.5 18.8429 31.6015C19.1696 31.7368 19.4292 31.9964 19.5645 32.3231C19.666 32.5681 19.666 32.8788 19.666 33.5Z" stroke="black" stroke-opacity="0.85" stroke-width="1.8" stroke-linejoin="round"/>
</svg>
