<svg width="114" height="32" viewBox="0 0 114 32" fill="none" xmlns="http://www.w3.org/2000/svg">
<mask id="path-1-inside-1_21_1866" fill="white">
<path d="M0 0H114V32H0V0Z"/>
</mask>
<path d="M1 32V0H-1V32H1Z" fill="#9B4094" mask="url(#path-1-inside-1_21_1866)"/>
<path d="M18.5 7.00195H37.5" stroke="#872C80" stroke-width="1.5" stroke-linecap="round" stroke-linejoin="round"/>
<path d="M20.5 7.00195V18.001C20.5 20.3298 20.9306 21.0903 22.9275 22.2885L25.942 24.0972C26.9447 24.6987 27.446 24.9996 28 24.9996C28.554 24.9996 29.0553 24.6987 30.058 24.0972L33.0725 22.2885C35.0694 21.0903 35.5 20.3298 35.5 18.001V7.00195" fill="#872C80"/>
<path d="M20.5 7.00195V18.001C20.5 20.3298 20.9306 21.0903 22.9275 22.2885L25.942 24.0972C26.9447 24.6987 27.446 24.9996 28 24.9996C28.554 24.9996 29.0553 24.6987 30.058 24.0972L33.0725 22.2885C35.0694 21.0903 35.5 20.3298 35.5 18.001V7.00195" stroke="#872C80" stroke-width="1.5" stroke-linecap="round" stroke-linejoin="round"/>
<path d="M28.6045 12.0055L29.2204 13.2475C29.3044 13.4204 29.5284 13.5863 29.7173 13.618L30.8337 13.805C31.5476 13.925 31.7156 14.4472 31.2012 14.9624L30.3333 15.8374C30.1863 15.9856 30.1058 16.2715 30.1513 16.4761L30.3998 17.5594C30.5957 18.4168 30.1443 18.7485 29.3919 18.3004L28.3455 17.6758C28.1565 17.5629 27.845 17.5629 27.6526 17.6758L26.6062 18.3004C25.8573 18.7485 25.4023 18.4133 25.5983 17.5594L25.8468 16.4761C25.8923 16.2715 25.8118 15.9856 25.6648 15.8374L24.7969 14.9624C24.286 14.4472 24.4504 13.925 25.1644 13.805L26.2807 13.618C26.4662 13.5863 26.6902 13.4204 26.7742 13.2475L27.3901 12.0055C27.7261 11.3315 28.272 11.3315 28.6045 12.0055Z" stroke="white" stroke-width="1.5" stroke-linecap="round" stroke-linejoin="round"/>
<path d="M50.5689 20.5L54.1529 10.56H56.0709L59.6549 20.5H58.0449L57.1349 17.91H53.0749L52.1789 20.5H50.5689ZM53.5509 16.538H56.6729L55.1049 12.002L53.5509 16.538ZM61.3759 20.5L59.1079 13.052H60.6619L62.2579 18.876L63.8959 13.052H65.2959L66.9339 18.876L68.5439 13.052H70.0979L67.8299 20.5H66.1639L64.5959 15.18L63.0279 20.5H61.3759ZM72.9215 20.668C72.1468 20.668 71.5262 20.4907 71.0595 20.136C70.6022 19.7813 70.3735 19.282 70.3735 18.638C70.3735 17.994 70.5648 17.4947 70.9475 17.14C71.3395 16.776 71.9415 16.5147 72.7535 16.356L75.3155 15.866C75.3155 15.2873 75.1802 14.858 74.9095 14.578C74.6388 14.2887 74.2375 14.144 73.7055 14.144C73.2295 14.144 72.8562 14.2513 72.5855 14.466C72.3148 14.6713 72.1282 14.9793 72.0255 15.39L70.4995 15.292C70.6395 14.5453 70.9848 13.9573 71.5355 13.528C72.0955 13.0987 72.8188 12.884 73.7055 12.884C74.7135 12.884 75.4788 13.1547 76.0015 13.696C76.5335 14.228 76.7995 14.9793 76.7995 15.95V18.848C76.7995 19.0253 76.8275 19.1513 76.8835 19.226C76.9488 19.2913 77.0515 19.324 77.1915 19.324H77.4575V20.5C77.4108 20.5093 77.3362 20.5187 77.2335 20.528C77.1308 20.5373 77.0235 20.542 76.9115 20.542C76.5942 20.542 76.3188 20.4907 76.0855 20.388C75.8615 20.2853 75.6935 20.1173 75.5815 19.884C75.4695 19.6413 75.4135 19.3193 75.4135 18.918L75.5675 18.988C75.4928 19.3147 75.3295 19.604 75.0775 19.856C74.8348 20.108 74.5222 20.3087 74.1395 20.458C73.7662 20.598 73.3602 20.668 72.9215 20.668ZM73.1595 19.492C73.6075 19.492 73.9902 19.408 74.3075 19.24C74.6248 19.0627 74.8722 18.82 75.0495 18.512C75.2268 18.204 75.3155 17.854 75.3155 17.462V16.986L73.1315 17.406C72.6835 17.49 72.3662 17.6253 72.1795 17.812C72.0022 17.9893 71.9135 18.218 71.9135 18.498C71.9135 18.8153 72.0208 19.0627 72.2355 19.24C72.4595 19.408 72.7675 19.492 73.1595 19.492ZM78.4305 20.5V13.052H79.7885L79.8445 15.026L79.7185 14.984C79.8212 14.312 80.0265 13.822 80.3345 13.514C80.6518 13.206 81.0765 13.052 81.6085 13.052H82.3225V14.382H81.6085C81.2352 14.382 80.9225 14.4427 80.6705 14.564C80.4185 14.6853 80.2272 14.872 80.0965 15.124C79.9752 15.376 79.9145 15.7027 79.9145 16.104V20.5H78.4305ZM85.7457 20.668C85.1111 20.668 84.5557 20.5093 84.0797 20.192C83.6131 19.8747 83.2537 19.4267 83.0017 18.848C82.7591 18.26 82.6377 17.5693 82.6377 16.776C82.6377 15.9827 82.7637 15.2967 83.0157 14.718C83.2677 14.13 83.6271 13.6773 84.0937 13.36C84.5604 13.0427 85.1111 12.884 85.7457 12.884C86.2591 12.884 86.7164 12.9913 87.1177 13.206C87.5191 13.4207 87.8224 13.7193 88.0277 14.102V10.56H89.5117V20.5H88.1257L88.0837 19.38C87.8784 19.7813 87.5657 20.0987 87.1457 20.332C86.7351 20.556 86.2684 20.668 85.7457 20.668ZM86.1377 19.38C86.5391 19.38 86.8797 19.2773 87.1597 19.072C87.4397 18.8667 87.6544 18.568 87.8037 18.176C87.9531 17.784 88.0277 17.3173 88.0277 16.776C88.0277 16.216 87.9531 15.7447 87.8037 15.362C87.6544 14.97 87.4397 14.676 87.1597 14.48C86.8797 14.2747 86.5391 14.172 86.1377 14.172C85.5404 14.172 85.0644 14.4053 84.7097 14.872C84.3551 15.3293 84.1777 15.964 84.1777 16.776C84.1777 17.5787 84.3551 18.2133 84.7097 18.68C85.0644 19.1467 85.5404 19.38 86.1377 19.38ZM94.0706 20.668C93.3706 20.668 92.7779 20.5607 92.2926 20.346C91.8166 20.1313 91.4479 19.8373 91.1866 19.464C90.9253 19.0813 90.7759 18.6427 90.7386 18.148L92.2646 18.078C92.3393 18.4887 92.5166 18.8153 92.7966 19.058C93.0766 19.3007 93.5013 19.422 94.0706 19.422C94.5373 19.422 94.9059 19.3473 95.1766 19.198C95.4473 19.0487 95.5826 18.8107 95.5826 18.484C95.5826 18.3067 95.5359 18.1573 95.4426 18.036C95.3586 17.9053 95.1906 17.798 94.9386 17.714C94.6866 17.6207 94.3133 17.532 93.8186 17.448C93.0813 17.308 92.5026 17.1447 92.0826 16.958C91.6626 16.7713 91.3639 16.5333 91.1866 16.244C91.0093 15.9547 90.9206 15.6047 90.9206 15.194C90.9206 14.5127 91.1726 13.9573 91.6766 13.528C92.1899 13.0987 92.9273 12.884 93.8886 12.884C94.5326 12.884 95.0739 12.996 95.5126 13.22C95.9513 13.4347 96.2919 13.7287 96.5346 14.102C96.7866 14.466 96.9453 14.8767 97.0106 15.334L95.4846 15.418C95.4379 15.1567 95.3446 14.9327 95.2046 14.746C95.0739 14.55 94.8966 14.4007 94.6726 14.298C94.4486 14.186 94.1826 14.13 93.8746 14.13C93.3986 14.13 93.0439 14.2233 92.8106 14.41C92.5773 14.5967 92.4606 14.8393 92.4606 15.138C92.4606 15.362 92.5119 15.544 92.6146 15.684C92.7266 15.824 92.9039 15.9407 93.1466 16.034C93.3893 16.118 93.7113 16.1927 94.1126 16.258C94.8873 16.3887 95.4939 16.552 95.9326 16.748C96.3713 16.9347 96.6793 17.168 96.8566 17.448C97.0339 17.728 97.1226 18.0687 97.1226 18.47C97.1226 18.9367 96.9919 19.3333 96.7306 19.66C96.4693 19.9867 96.1099 20.2387 95.6526 20.416C95.1953 20.584 94.6679 20.668 94.0706 20.668Z" fill="#91368A"/>
</svg>
