<svg width="24" height="24" viewBox="0 0 24 24" fill="none" xmlns="http://www.w3.org/2000/svg">
<g id="Component 1">
<path id="Vector" d="M21.4178 9.7178L5.10138 0.391176C4.7017 0.163205 4.24918 0.0441515 3.78905 0.0459178C3.32893 0.0476841 2.87733 0.170209 2.47941 0.401242C2.08149 0.632274 1.75119 0.963719 1.52153 1.36244C1.29188 1.76116 1.17092 2.21318 1.17075 2.6733V21.3265C1.17071 21.787 1.29162 22.2394 1.52138 22.6384C1.75115 23.0374 2.0817 23.369 2.47994 23.6001C2.87819 23.8312 3.33015 23.9537 3.79059 23.9552C4.25103 23.9567 4.70378 23.8372 5.10352 23.6087L21.4174 14.2816C21.8197 14.0517 22.154 13.7196 22.3865 13.3188C22.619 12.9181 22.7415 12.463 22.7415 11.9997C22.7415 11.5364 22.619 11.0813 22.3865 10.6806C22.154 10.2799 21.8201 9.94772 21.4178 9.7178ZM14.3473 7.51252L12.107 10.6336L6.74819 3.16901L14.3473 7.51252ZM3.69411 22.3517C3.54757 22.3385 3.40559 22.294 3.27782 22.221C3.12101 22.1297 2.9909 21.9988 2.90047 21.8415C2.81004 21.6842 2.76246 21.5059 2.76247 21.3244V2.6733C2.7619 2.41707 2.85687 2.16983 3.02883 1.97988C3.20078 1.78992 3.43738 1.67088 3.6924 1.64603L11.1259 11.9999L3.69411 22.3517ZM6.74819 20.8308L12.107 13.3662L14.3473 16.4869L6.74819 20.8308ZM20.6245 12.8978L15.7384 15.6919L13.0882 11.9999L15.7388 8.30796L20.6267 11.1033C20.785 11.1937 20.9166 11.3244 21.0081 11.4821C21.0996 11.6398 21.1478 11.8189 21.1478 12.0012C21.1478 12.1835 21.0996 12.3626 21.0081 12.5203C20.9166 12.678 20.785 12.8087 20.6267 12.8991L20.6245 12.8978Z" fill="white"/>
</g>
</svg>
