<svg width="80" height="80" viewBox="0 0 80 80" fill="none" xmlns="http://www.w3.org/2000/svg">
<rect width="80" height="80" rx="40" fill="#91368A" fill-opacity="0.1"/>
<path d="M38.334 31.6667H48.334M38.334 28.3334V35C38.334 37.7615 40.5725 40 43.334 40C46.0955 40 48.334 37.7615 48.334 35V28.3334C48.334 25.572 46.0955 23.3334 43.334 23.3334C40.5725 23.3334 38.334 25.572 38.334 28.3334Z" stroke="black" stroke-opacity="0.8" stroke-width="2" stroke-linecap="round" stroke-linejoin="round"/>
<path d="M26.666 43.3334H30.6574C31.1476 43.3334 31.6311 43.4439 32.0696 43.656L35.4729 45.3027C35.9114 45.5149 36.3949 45.6252 36.8852 45.6252H38.6228C40.3035 45.6252 41.666 46.9437 41.666 48.57C41.666 48.6357 41.621 48.6935 41.5557 48.7115L37.3208 49.8825C36.5611 50.0925 35.7477 50.0194 35.041 49.6774L31.4029 47.9172" stroke="black" stroke-opacity="0.8" stroke-width="2" stroke-linecap="round" stroke-linejoin="round"/>
<path d="M41.666 47.5L49.3207 45.1482C50.6777 44.7254 52.1445 45.2267 52.9945 46.4039C53.6092 47.2549 53.3588 48.4737 52.4635 48.9904L39.9375 56.2175C39.1408 56.6772 38.2008 56.7894 37.3247 56.5294L26.666 53.3665" stroke="black" stroke-opacity="0.8" stroke-width="2" stroke-linecap="round" stroke-linejoin="round"/>
</svg>
