<svg width="26" height="26" viewBox="0 0 26 26" fill="none" xmlns="http://www.w3.org/2000/svg">
<path d="M7.0415 3.79175H4.87484C4.27653 3.79175 3.7915 4.27678 3.7915 4.87508V8.66675C3.7915 11.9575 6.45914 14.6251 9.74984 14.6251C13.0406 14.6251 15.7082 11.9575 15.7082 8.66675V4.87508C15.7082 4.27678 15.2232 3.79175 14.6248 3.79175H12.4582" stroke="black" stroke-opacity="0.9" stroke-width="1.5" stroke-linecap="round" stroke-linejoin="round"/>
<path d="M20.0415 16.7917V18.1458C20.0415 20.9878 17.7377 23.2917 14.8956 23.2917C12.0536 23.2917 9.74982 20.9878 9.74982 18.1458V14.625" stroke="black" stroke-opacity="0.9" stroke-width="1.5" stroke-linecap="round" stroke-linejoin="round"/>
<path d="M12.4581 2.70825V4.87492" stroke="black" stroke-opacity="0.9" stroke-width="1.5" stroke-linecap="round" stroke-linejoin="round"/>
<path d="M7.0415 2.70825V4.87492" stroke="black" stroke-opacity="0.9" stroke-width="1.5" stroke-linecap="round" stroke-linejoin="round"/>
<path d="M22.2081 14.6249C22.2081 15.8216 21.2381 16.7916 20.0415 16.7916C18.8448 16.7916 17.8748 15.8216 17.8748 14.6249C17.8748 13.4283 18.8448 12.4583 20.0415 12.4583C21.2381 12.4583 22.2081 13.4283 22.2081 14.6249Z" stroke="black" stroke-opacity="0.9" stroke-width="1.5"/>
</svg>
