<svg width="40" height="40" viewBox="0 0 40 40" fill="none" xmlns="http://www.w3.org/2000/svg">
<path d="M28.333 3.33331C28.333 4.18308 28.333 4.60796 28.4458 5.00391C28.5078 5.22141 28.5947 5.43105 28.7047 5.6287C28.9048 5.98846 29.2053 6.28891 29.8062 6.88978L33.1098 10.1935C33.7107 10.7944 34.0112 11.0948 34.371 11.295C34.5687 11.4049 34.7782 11.4918 34.9957 11.5538C35.3917 11.6666 35.8165 11.6666 36.6663 11.6666" stroke="black" stroke-opacity="0.8" stroke-width="2" stroke-linecap="round" stroke-linejoin="round"/>
<path d="M19.4882 11.6667L11.2751 19.8797C9.50047 21.6544 8.61317 22.5417 8.40167 23.605C8.31012 24.0652 8.31012 24.539 8.40167 24.9994C8.61317 26.0627 9.50049 26.95 11.2751 28.7247C13.0497 30.4992 13.937 31.3865 15.0003 31.598C15.4606 31.6895 15.9344 31.6895 16.3947 31.598C17.458 31.3865 18.3453 30.4992 20.12 28.7247L28.333 20.5115" stroke="black" stroke-opacity="0.8" stroke-width="2" stroke-linecap="round" stroke-linejoin="round"/>
<path d="M18.333 10L29.9997 21.6667" stroke="black" stroke-opacity="0.8" stroke-width="2" stroke-linecap="round" stroke-linejoin="round"/>
<path d="M13.3337 31.062L11.3846 32.4542C10.6001 33.0145 10.2079 33.2947 9.77775 33.3285C9.61094 33.3417 9.4431 33.3279 9.28072 33.2874C8.86202 33.1834 8.52119 32.8425 7.83952 32.1609C7.15787 31.4792 6.81704 31.1384 6.71292 30.7197C6.67254 30.5572 6.65865 30.3894 6.67179 30.2225C6.70565 29.7925 6.98582 29.4002 7.54614 28.6159L8.93835 26.6667" stroke="black" stroke-opacity="0.8" stroke-width="2" stroke-linecap="round" stroke-linejoin="round"/>
<path d="M22.5 13.3334L30.8333 6.66669M26.6667 17.5L33.3333 9.16669" stroke="black" stroke-opacity="0.8" stroke-width="2" stroke-linejoin="round"/>
<path d="M7.49967 32.5L3.33301 36.6667" stroke="black" stroke-opacity="0.8" stroke-width="2" stroke-linecap="round" stroke-linejoin="round"/>
</svg>
