<svg width="25" height="24" viewBox="0 0 25 24" fill="none" xmlns="http://www.w3.org/2000/svg">
<path d="M22.5 12C22.5 17.5228 18.0228 22 12.5 22C6.97715 22 2.5 17.5228 2.5 12C2.5 6.47715 6.97715 2 12.5 2C18.0228 2 22.5 6.47715 22.5 12Z" stroke="#872C80" stroke-width="1.5"/>
<path d="M15.25 9.5C15.25 11.0188 14.0188 12.25 12.5 12.25C10.9812 12.25 9.75 11.0188 9.75 9.5C9.75 7.98122 10.9812 6.75 12.5 6.75C14.0188 6.75 15.25 7.98122 15.25 9.5Z" fill="#872C80" stroke="#872C80" stroke-width="1.5"/>
<path d="M10.9998 21.5L8.49982 20L6.49982 18.5C7.39003 16.9422 9.10729 15.5 10.9016 15.5H14.0983C15.8926 15.5 17.6096 16.9422 18.4998 18.5L16.4998 21" fill="#872C80"/>
<path d="M10.9998 21.5L8.49982 20L6.49982 18.5C7.39003 16.9422 9.10729 15.5 10.9016 15.5H14.0983C15.8926 15.5 17.6096 16.9422 18.4998 18.5L16.4998 21" stroke="#872C80" stroke-width="1.5" stroke-linecap="round" stroke-linejoin="round"/>
</svg>
