<svg width="82" height="24" viewBox="0 0 82 24" fill="none" xmlns="http://www.w3.org/2000/svg">
<path d="M22.5 12C22.5 17.5228 18.0228 22 12.5 22C6.97715 22 2.5 17.5228 2.5 12C2.5 6.47715 6.97715 2 12.5 2C18.0228 2 22.5 6.47715 22.5 12Z" stroke="#872C80" stroke-width="1.5"/>
<path d="M15.25 9.5C15.25 11.0188 14.0188 12.25 12.5 12.25C10.9812 12.25 9.75 11.0188 9.75 9.5C9.75 7.98122 10.9812 6.75 12.5 6.75C14.0188 6.75 15.25 7.98122 15.25 9.5Z" fill="#872C80" stroke="#872C80" stroke-width="1.5"/>
<path d="M10.9998 21.5L8.49982 20L6.49982 18.5C7.39003 16.9422 9.10729 15.5 10.9016 15.5H14.0983C15.8926 15.5 17.6096 16.9422 18.4998 18.5L16.4998 21" fill="#872C80"/>
<path d="M10.9998 21.5L8.49982 20L6.49982 18.5C7.39003 16.9422 9.10729 15.5 10.9016 15.5H14.0983C15.8926 15.5 17.6096 16.9422 18.4998 18.5L16.4998 21" stroke="#872C80" stroke-width="1.5" stroke-linecap="round" stroke-linejoin="round"/>
<path d="M35.7628 16.5V6.56H42.2168V7.946H36.4768L37.2748 7.12V11.684L36.4768 10.97H41.9648V12.314H36.4768L37.2748 11.6V16.5H35.7628ZM46.3244 16.668C45.6151 16.668 44.9944 16.5093 44.4624 16.192C43.9304 15.8747 43.5198 15.422 43.2304 14.834C42.9411 14.246 42.7964 13.56 42.7964 12.776C42.7964 11.9827 42.9411 11.2967 43.2304 10.718C43.5198 10.1393 43.9304 9.69133 44.4624 9.374C44.9944 9.04733 45.6151 8.884 46.3244 8.884C47.0338 8.884 47.6544 9.04733 48.1864 9.374C48.7184 9.69133 49.1291 10.1393 49.4184 10.718C49.7078 11.2967 49.8524 11.9827 49.8524 12.776C49.8524 13.56 49.7078 14.246 49.4184 14.834C49.1291 15.422 48.7184 15.8747 48.1864 16.192C47.6544 16.5093 47.0338 16.668 46.3244 16.668ZM46.3244 15.38C46.9591 15.38 47.4491 15.1513 47.7944 14.694C48.1398 14.2273 48.3124 13.588 48.3124 12.776C48.3124 11.964 48.1398 11.3293 47.7944 10.872C47.4491 10.4053 46.9591 10.172 46.3244 10.172C45.6991 10.172 45.2091 10.4053 44.8544 10.872C44.5091 11.3293 44.3364 11.964 44.3364 12.776C44.3364 13.588 44.5091 14.2273 44.8544 14.694C45.2091 15.1513 45.6991 15.38 46.3244 15.38ZM51.0722 16.5V9.052H52.4302L52.4862 11.026L52.3602 10.984C52.4629 10.312 52.6682 9.822 52.9762 9.514C53.2935 9.206 53.7182 9.052 54.2502 9.052H54.9642V10.382H54.2502C53.8769 10.382 53.5642 10.4427 53.3122 10.564C53.0602 10.6853 52.8689 10.872 52.7382 11.124C52.6169 11.376 52.5562 11.7027 52.5562 12.104V16.5H51.0722ZM61.7782 16.5V12.51L58.2922 6.56H60.0282L62.5342 10.998L65.0542 6.56H66.7902L63.2902 12.51V16.5H61.7782ZM69.5404 16.668C68.831 16.668 68.2104 16.5093 67.6784 16.192C67.1464 15.8747 66.7357 15.422 66.4464 14.834C66.157 14.246 66.0124 13.56 66.0124 12.776C66.0124 11.9827 66.157 11.2967 66.4464 10.718C66.7357 10.1393 67.1464 9.69133 67.6784 9.374C68.2104 9.04733 68.831 8.884 69.5404 8.884C70.2497 8.884 70.8704 9.04733 71.4024 9.374C71.9344 9.69133 72.345 10.1393 72.6344 10.718C72.9237 11.2967 73.0684 11.9827 73.0684 12.776C73.0684 13.56 72.9237 14.246 72.6344 14.834C72.345 15.422 71.9344 15.8747 71.4024 16.192C70.8704 16.5093 70.2497 16.668 69.5404 16.668ZM69.5404 15.38C70.175 15.38 70.665 15.1513 71.0104 14.694C71.3557 14.2273 71.5284 13.588 71.5284 12.776C71.5284 11.964 71.3557 11.3293 71.0104 10.872C70.665 10.4053 70.175 10.172 69.5404 10.172C68.915 10.172 68.425 10.4053 68.0704 10.872C67.725 11.3293 67.5524 11.964 67.5524 12.776C67.5524 13.588 67.725 14.2273 68.0704 14.694C68.425 15.1513 68.915 15.38 69.5404 15.38ZM76.7381 16.668C75.9915 16.668 75.3941 16.4207 74.9461 15.926C74.5075 15.422 74.2881 14.7267 74.2881 13.84V9.052H75.7721V13.462C75.7721 14.134 75.8888 14.6287 76.1221 14.946C76.3555 15.2633 76.7101 15.422 77.1861 15.422C77.7275 15.422 78.1475 15.2493 78.4461 14.904C78.7541 14.5493 78.9081 14.0547 78.9081 13.42V9.052H80.3921V16.5H79.0061L78.9781 14.554L79.1881 14.638C79.0575 15.2913 78.7821 15.7953 78.3621 16.15C77.9421 16.4953 77.4008 16.668 76.7381 16.668Z" fill="#91368A"/>
</svg>
