<svg width="22" height="22" viewBox="0 0 22 22" fill="none" xmlns="http://www.w3.org/2000/svg">
<path d="M8.9375 11C8.9375 12.1371 9.86287 13.0625 11 13.0625C12.1371 13.0625 13.0625 12.1371 13.0625 11C13.0625 9.86287 12.1371 8.9375 11 8.9375C9.86287 8.9375 8.9375 9.86287 8.9375 11Z" fill="white"/>
<path d="M8.9375 17.875C8.9375 19.0121 9.86287 19.9375 11 19.9375C12.1371 19.9375 13.0625 19.0121 13.0625 17.875C13.0625 16.7379 12.1371 15.8125 11 15.8125C9.86287 15.8125 8.9375 16.7379 8.9375 17.875Z" fill="white"/>
<path d="M8.9375 4.125C8.9375 5.26213 9.86287 6.1875 11 6.1875C12.1371 6.1875 13.0625 5.26213 13.0625 4.125C13.0625 2.98787 12.1371 2.0625 11 2.0625C9.86287 2.0625 8.9375 2.98787 8.9375 4.125Z" fill="white"/>
</svg>
