<svg width="26" height="26" viewBox="0 0 26 26" fill="none" xmlns="http://www.w3.org/2000/svg">
<path d="M13 4.875V6.5M13 6.5V8.125M13 6.5H14.625M13 6.5H11.375" stroke="black" stroke-opacity="0.9" stroke-width="1.5" stroke-linecap="round"/>
<path d="M9.30123 2.80135C8.66663 3.43595 8.66663 4.45733 8.66663 6.50008C8.66663 8.54284 8.66663 9.56421 9.30123 10.1988C9.93583 10.8334 10.9572 10.8334 13 10.8334C15.0427 10.8334 16.0641 10.8334 16.6987 10.1988C17.3333 9.56421 17.3333 8.54284 17.3333 6.50008C17.3333 4.45733 17.3333 3.43595 16.6987 2.80135C16.0641 2.16675 15.0427 2.16675 13 2.16675C10.9572 2.16675 9.93583 2.16675 9.30123 2.80135Z" stroke="black" stroke-opacity="0.9" stroke-width="1.5" stroke-linecap="round" stroke-linejoin="round"/>
<path d="M4.33337 23.8334V12.9683C4.33337 9.38308 4.33337 7.59045 5.44393 6.47664C6.14974 5.76876 7.12897 5.51077 8.66671 5.41675M21.6667 23.8334V12.9683C21.6667 9.38308 21.6667 7.59045 20.5562 6.47664C19.8503 5.76876 18.8711 5.51077 17.3334 5.41675" stroke="black" stroke-opacity="0.9" stroke-width="1.5" stroke-linecap="round" stroke-linejoin="round"/>
<path d="M3.25 23.8333H22.75" stroke="black" stroke-opacity="0.9" stroke-width="1.5" stroke-linecap="round" stroke-linejoin="round"/>
<path d="M10.2916 23.8334V21.1251C10.2916 20.1126 10.2916 19.6064 10.5093 19.2292C10.652 18.9822 10.8571 18.7771 11.1041 18.6345C11.4812 18.4167 11.9875 18.4167 13 18.4167C14.0124 18.4167 14.5187 18.4167 14.8958 18.6345C15.1428 18.7771 15.348 18.9822 15.4905 19.2292C15.7083 19.6064 15.7083 20.1126 15.7083 21.1251V23.8334" stroke="black" stroke-opacity="0.9" stroke-width="1.5" stroke-linecap="round"/>
<path d="M8.67633 14.0833H8.66663M13 14.0833H12.9902M17.3345 14.0833H17.3248" stroke="black" stroke-opacity="0.9" stroke-width="2" stroke-linecap="round" stroke-linejoin="round"/>
</svg>
