<svg width="17" height="17" viewBox="0 0 17 17" fill="none" xmlns="http://www.w3.org/2000/svg">
<g id="Component 3">
<path id="Vector" d="M14.1313 14.1347H11.762V10.422C11.762 9.53667 11.744 8.39733 10.5273 8.39733C9.292 8.39733 9.10333 9.36067 9.10333 10.3567V14.1347H6.734V6.5H9.01V7.54067H9.04067C9.35867 6.94067 10.132 6.30733 11.2873 6.30733C13.688 6.30733 14.132 7.88733 14.132 9.944L14.1313 14.1347ZM4.058 5.45533C3.29533 5.45533 2.68267 4.838 2.68267 4.07867C2.68267 3.32 3.296 2.70333 4.058 2.70333C4.818 2.70333 5.434 3.32 5.434 4.07867C5.434 4.838 4.81733 5.45533 4.058 5.45533ZM5.246 14.1347H2.87V6.5H5.246V14.1347ZM15.3167 0.5H1.68067C1.028 0.5 0.5 1.016 0.5 1.65267V15.3473C0.5 15.9847 1.028 16.5 1.68067 16.5H15.3147C15.9667 16.5 16.5 15.9847 16.5 15.3473V1.65267C16.5 1.016 15.9667 0.5 15.3147 0.5H15.3167Z" fill="black" fill-opacity="0.9"/>
</g>
</svg>
