<svg width="24" height="25" viewBox="0 0 24 25" fill="none" xmlns="http://www.w3.org/2000/svg">
<path d="M12 22.5C17.5228 22.5 22 18.0228 22 12.5C22 6.97715 17.5228 2.5 12 2.5C6.47715 2.5 2 6.97715 2 12.5C2 18.0228 6.47715 22.5 12 22.5Z" stroke="#91368A" stroke-width="1.5"/>
<path d="M14 16.5C13.4271 17.1318 12.7395 17.5 12 17.5C11.2605 17.5 10.5729 17.1318 10 16.5" stroke="#91368A" stroke-width="1.5" stroke-linecap="round"/>
<path d="M9 12C8.71357 11.6841 8.36974 11.5 8 11.5C7.63026 11.5 7.28643 11.6841 7 12" stroke="#91368A" stroke-width="1.5" stroke-linecap="round"/>
<path d="M17 12C16.7136 11.6841 16.3697 11.5 16 11.5C15.6303 11.5 15.2864 11.6841 15 12" stroke="#91368A" stroke-width="1.5" stroke-linecap="round"/>
<path d="M12 2.5C10.3431 2.5 9 3.84315 9 5.5C9 7.15685 10.3431 8.5 12 8.5C12.7684 8.5 13.4692 8.21115 14 7.73611" stroke="#91368A" stroke-width="1.5" stroke-linecap="round"/>
</svg>
