<svg width="40" height="40" viewBox="0 0 40 40" fill="none" xmlns="http://www.w3.org/2000/svg">
<path d="M16.6423 10C16.9044 7.65658 15.0072 5 10.9519 5C6.74412 5 3.33301 9.10405 3.33301 14.1667C3.33301 19.2293 5.89781 23.3333 10.1056 23.3333C12.7996 23.3333 14.2255 21.2432 13.926 19.4315" stroke="black" stroke-opacity="0.8" stroke-width="2" stroke-linecap="round"/>
<path d="M11.667 13.3333C14.1671 13.3326 17.5002 14.1595 17.5002 19.4C17.5002 26.3333 14.166 28.9333 16.6678 35M28.3337 13.3333C25.8335 13.3326 22.5005 14.1595 22.5005 19.4C22.5005 26.3333 25.8347 28.9333 23.3328 35" stroke="black" stroke-opacity="0.8" stroke-width="2" stroke-linecap="round"/>
<path d="M11.0173 10C11.3568 10.9524 11.934 13.2381 11.5265 14.7619C11.3568 15.3968 10.8138 16.6667 10 16.6667" stroke="black" stroke-opacity="0.8" stroke-width="2" stroke-linecap="round"/>
<path d="M23.3569 10C23.0949 7.65658 24.992 5 29.0474 5C33.255 5 36.6662 9.10405 36.6662 14.1667C36.6662 19.2293 34.1014 23.3333 29.8935 23.3333C27.0672 23.3333 25.6365 21.0327 26.13 19.1667" stroke="black" stroke-opacity="0.8" stroke-width="2" stroke-linecap="round"/>
<path d="M28.9825 10C28.6428 10.9524 28.0657 13.2381 28.4732 14.7619C28.6428 15.3968 29.1858 16.6667 29.9997 16.6667" stroke="black" stroke-opacity="0.8" stroke-width="2" stroke-linecap="round"/>
</svg>
