<svg width="41" height="40" viewBox="0 0 41 40" fill="none" xmlns="http://www.w3.org/2000/svg">
<path d="M28.8297 11.8775C29.3633 11.7399 29.923 11.6667 30.4997 11.6667C34.1815 11.6667 37.1663 14.6514 37.1663 18.3333C37.1663 22.0152 34.1815 25 30.4997 25C29.9082 25 29.3345 24.923 28.7885 24.7783M28.8297 11.8775C28.8318 11.8075 28.833 11.7372 28.833 11.6667C28.833 7.98477 25.8482 5 22.1663 5C18.9703 5 16.2996 7.24898 15.6504 10.2507M28.8297 11.8775C28.7945 13.0127 28.4753 14.0764 27.9412 15M28.7885 24.7783C28.8178 24.5787 28.833 24.3745 28.833 24.1667C28.833 22.1508 27.4015 20.4693 25.4997 20.0833M28.7885 24.7783C28.4925 26.7895 26.7597 28.3333 24.6663 28.3333H23.833C20.1512 28.3333 17.1663 31.3182 17.1663 35M15.6504 10.2507C15.0726 10.0874 14.463 10 13.833 10C10.1511 10 7.16634 12.9848 7.16634 16.6667C7.16634 17.3143 7.25871 17.9405 7.43097 18.5325M15.6504 10.2507C17.3355 10.7271 18.7493 11.8494 19.6078 13.3333M7.43097 18.5325C5.35201 19.1387 3.83301 21.0587 3.83301 23.3333C3.83301 26.0948 6.07159 28.3333 8.83301 28.3333C11.01 28.3333 12.8621 26.942 13.5485 25M7.43097 18.5325C7.58169 19.0505 7.79354 19.5425 8.05822 20" stroke="black" stroke-opacity="0.8" stroke-width="2" stroke-linecap="round" stroke-linejoin="round"/>
<path d="M20.2268 19.5725C19.3762 20.3922 17.9217 20.5337 16.6785 19.8347C15.4353 19.1357 14.8005 17.8195 15.0589 16.6667" stroke="black" stroke-opacity="0.8" stroke-width="2" stroke-linecap="round"/>
</svg>
