<svg width="136" height="32" viewBox="0 0 136 32" fill="none" xmlns="http://www.w3.org/2000/svg">
<mask id="path-1-inside-1_21_1923" fill="white">
<path d="M0 0H136V32H0V0Z"/>
</mask>
<path d="M1 32V0H-1V32H1Z" fill="#9B4094" mask="url(#path-1-inside-1_21_1923)"/>
<path d="M34 19V13C34 10.1716 34 8.75736 33.1213 7.87868C32.2426 7 30.8284 7 28 7H24C21.1716 7 19.7574 7 18.8787 7.87868C18 8.75736 18 10.1716 18 13V19C18 21.8284 18 23.2426 18.8787 24.1213C19.7574 25 21.1716 25 24 25H36" fill="#872C80"/>
<path d="M34 19V13C34 10.1716 34 8.75736 33.1213 7.87868C32.2426 7 30.8284 7 28 7H24C21.1716 7 19.7574 7 18.8787 7.87868C18 8.75736 18 10.1716 18 13V19C18 21.8284 18 23.2426 18.8787 24.1213C19.7574 25 21.1716 25 24 25H36" stroke="#872C80" stroke-width="1.5" stroke-linecap="round" stroke-linejoin="round"/>
<path d="M22 12H30" stroke="white" stroke-width="1.5" stroke-linecap="round" stroke-linejoin="round"/>
<path d="M22 16H30" stroke="white" stroke-width="1.5" stroke-linecap="round" stroke-linejoin="round"/>
<path d="M22 20H26" stroke="white" stroke-width="1.5" stroke-linecap="round" stroke-linejoin="round"/>
<path d="M34 12H35C36.4142 12 37.1213 12 37.5607 12.4393C38 12.8787 38 13.5858 38 15V23C38 24.1046 37.1046 25 36 25C34.8954 25 34 24.1046 34 23V12Z" stroke="#872C80" stroke-width="1.5" stroke-linecap="round" stroke-linejoin="round"/>
<path d="M51.3252 20.5V11.27H52.7292V20.5H51.3252ZM54.68 20.5V13.584H55.941L55.993 15.43L55.824 15.339C55.902 14.8883 56.0494 14.5243 56.266 14.247C56.4827 13.9697 56.747 13.766 57.059 13.636C57.371 13.4973 57.709 13.428 58.073 13.428C58.593 13.428 59.022 13.545 59.36 13.779C59.7067 14.0043 59.9667 14.3163 60.14 14.715C60.322 15.105 60.413 15.5513 60.413 16.054V20.5H59.035V16.47C59.035 16.0627 58.9917 15.7203 58.905 15.443C58.8184 15.1657 58.6754 14.9533 58.476 14.806C58.2767 14.6587 58.0167 14.585 57.696 14.585C57.2107 14.585 56.8164 14.7453 56.513 15.066C56.2097 15.3867 56.058 15.8547 56.058 16.47V20.5H54.68ZM67.6538 20.5C66.9952 20.5 66.5098 20.3483 66.1978 20.045C65.8858 19.7417 65.7298 19.2693 65.7298 18.628V11.959H67.1078V18.524C67.1078 18.8447 67.1772 19.0657 67.3158 19.187C67.4545 19.3083 67.6668 19.369 67.9528 19.369H68.9408V20.5H67.6538ZM64.6768 14.715V13.584H68.9408V14.715H64.6768ZM69.9977 20.5V11.27H71.3757V15.144L71.2067 15.118C71.2847 14.728 71.4277 14.4117 71.6357 14.169C71.8437 13.9177 72.0994 13.7313 72.4027 13.61C72.706 13.4887 73.0397 13.428 73.4037 13.428C73.9064 13.428 74.331 13.5407 74.6777 13.766C75.0244 13.9827 75.2844 14.2903 75.4577 14.689C75.6397 15.0877 75.7307 15.5427 75.7307 16.054V20.5H74.3527V16.418C74.3527 15.794 74.2444 15.3347 74.0277 15.04C73.8197 14.7367 73.4904 14.585 73.0397 14.585C72.537 14.585 72.134 14.7453 71.8307 15.066C71.5274 15.378 71.3757 15.8373 71.3757 16.444V20.5H69.9977ZM80.113 20.656C79.437 20.656 78.852 20.5087 78.358 20.214C77.8727 19.9193 77.4957 19.499 77.227 18.953C76.967 18.407 76.837 17.77 76.837 17.042C76.837 16.314 76.967 15.6813 77.227 15.144C77.4957 14.598 77.8727 14.1777 78.358 13.883C78.8433 13.5797 79.4153 13.428 80.074 13.428C80.698 13.428 81.2483 13.5753 81.725 13.87C82.2017 14.156 82.57 14.572 82.83 15.118C83.0987 15.664 83.233 16.3227 83.233 17.094V17.445H78.267C78.3017 18.121 78.4793 18.628 78.8 18.966C79.1293 19.304 79.5713 19.473 80.126 19.473C80.5333 19.473 80.8713 19.3777 81.14 19.187C81.4087 18.9963 81.595 18.7407 81.699 18.42L83.129 18.511C82.947 19.1523 82.5873 19.6723 82.05 20.071C81.5213 20.461 80.8757 20.656 80.113 20.656ZM78.267 16.405H81.777C81.7337 15.7897 81.556 15.3347 81.244 15.04C80.9407 14.7453 80.5507 14.598 80.074 14.598C79.58 14.598 79.1727 14.754 78.852 15.066C78.54 15.3693 78.345 15.8157 78.267 16.405ZM87.5404 20.5V11.27H89.3214L93.5854 18.797V11.27H94.9894V20.5H93.1434L88.9444 13.142V20.5H87.5404ZM99.544 20.656C98.868 20.656 98.283 20.5087 97.789 20.214C97.3036 19.9193 96.9266 19.499 96.658 18.953C96.398 18.407 96.268 17.77 96.268 17.042C96.268 16.314 96.398 15.6813 96.658 15.144C96.9266 14.598 97.3036 14.1777 97.789 13.883C98.2743 13.5797 98.8463 13.428 99.505 13.428C100.129 13.428 100.679 13.5753 101.156 13.87C101.633 14.156 102.001 14.572 102.261 15.118C102.53 15.664 102.664 16.3227 102.664 17.094V17.445H97.698C97.7326 18.121 97.9103 18.628 98.231 18.966C98.5603 19.304 99.0023 19.473 99.557 19.473C99.9643 19.473 100.302 19.3777 100.571 19.187C100.84 18.9963 101.026 18.7407 101.13 18.42L102.56 18.511C102.378 19.1523 102.018 19.6723 101.481 20.071C100.952 20.461 100.307 20.656 99.544 20.656ZM97.698 16.405H101.208C101.165 15.7897 100.987 15.3347 100.675 15.04C100.372 14.7453 99.9816 14.598 99.505 14.598C99.011 14.598 98.6036 14.754 98.283 15.066C97.971 15.3693 97.776 15.8157 97.698 16.405ZM105.001 20.5L102.895 13.584H104.338L105.82 18.992L107.341 13.584H108.641L110.162 18.992L111.657 13.584H113.1L110.994 20.5H109.447L107.991 15.56L106.535 20.5H105.001ZM116.412 20.656C115.762 20.656 115.212 20.5563 114.761 20.357C114.319 20.1577 113.977 19.8847 113.734 19.538C113.492 19.1827 113.353 18.7753 113.318 18.316L114.735 18.251C114.805 18.6323 114.969 18.9357 115.229 19.161C115.489 19.3863 115.884 19.499 116.412 19.499C116.846 19.499 117.188 19.4297 117.439 19.291C117.691 19.1523 117.816 18.9313 117.816 18.628C117.816 18.4633 117.773 18.3247 117.686 18.212C117.608 18.0907 117.452 17.991 117.218 17.913C116.984 17.8263 116.638 17.744 116.178 17.666C115.494 17.536 114.956 17.3843 114.566 17.211C114.176 17.0377 113.899 16.8167 113.734 16.548C113.57 16.2793 113.487 15.9543 113.487 15.573C113.487 14.9403 113.721 14.4247 114.189 14.026C114.666 13.6273 115.351 13.428 116.243 13.428C116.841 13.428 117.344 13.532 117.751 13.74C118.159 13.9393 118.475 14.2123 118.7 14.559C118.934 14.897 119.082 15.2783 119.142 15.703L117.725 15.781C117.682 15.5383 117.595 15.3303 117.465 15.157C117.344 14.975 117.179 14.8363 116.971 14.741C116.763 14.637 116.516 14.585 116.23 14.585C115.788 14.585 115.459 14.6717 115.242 14.845C115.026 15.0183 114.917 15.2437 114.917 15.521C114.917 15.729 114.965 15.898 115.06 16.028C115.164 16.158 115.329 16.2663 115.554 16.353C115.78 16.431 116.079 16.5003 116.451 16.561C117.171 16.6823 117.734 16.834 118.141 17.016C118.549 17.1893 118.835 17.406 118.999 17.666C119.164 17.926 119.246 18.2423 119.246 18.615C119.246 19.0483 119.125 19.4167 118.882 19.72C118.64 20.0233 118.306 20.2573 117.881 20.422C117.457 20.578 116.967 20.656 116.412 20.656Z" fill="#91368A"/>
</svg>
