<svg width="40" height="40" viewBox="0 0 40 40" fill="none" xmlns="http://www.w3.org/2000/svg">
<path d="M20 3.33331C16.5451 3.33331 11.4708 4.27865 10.4833 8.15308C9.6095 11.5817 9.81272 14.033 11.9893 16.9445L24.8125 34.0971C26.1025 35.8226 26.7477 36.6855 27.6212 36.6663C28.4948 36.6471 29.0998 35.757 30.31 33.9765L31.1912 32.68C32.7038 30.4541 33.4603 29.3411 33.3158 28.1383C33.1715 26.9355 32.1723 26.0253 30.1738 24.205L11.3318 6.66665" stroke="black" stroke-opacity="0.8" stroke-width="2"/>
<path d="M20.0003 3.33331C23.4552 3.33331 28.5295 4.27865 29.517 8.15308C30.3908 11.5817 30.1877 14.033 28.011 16.9445L25.7267 20M28.6685 6.66665L20.0003 14.7351M20.0003 27.6598L15.1878 34.0971C13.8977 35.8226 13.2527 36.6855 12.3791 36.6663C11.5055 36.6471 10.9004 35.757 9.69036 33.9765L8.80921 32.68C7.29646 30.4541 6.54004 29.3411 6.68442 28.1383C6.82881 26.9355 7.82804 26.0253 9.82651 24.205L14.3441 20" stroke="black" stroke-opacity="0.8" stroke-width="2"/>
</svg>
