<svg width="40" height="40" viewBox="0 0 40 40" fill="none" xmlns="http://www.w3.org/2000/svg">
<path d="M20 23.3334C25.5228 23.3334 30 18.8562 30 13.3334C30 7.81053 25.5228 3.33337 20 3.33337C14.4772 3.33337 10 7.81053 10 13.3334C10 18.8562 14.4772 23.3334 20 23.3334Z" stroke="black" stroke-opacity="0.8" stroke-width="2"/>
<path d="M28.1233 20C29.3043 21.7283 30 23.8488 30 26.1403C30 27.5028 29.754 28.8048 29.3063 30M29.3063 30C27.844 33.904 24.2285 36.6667 20 36.6667C14.4771 36.6667 10 31.9538 10 26.1403C10 23.8488 10.6956 21.7283 11.8767 20M29.3063 30C24.7515 28 20.0932 24.7222 18.3333 23.3333" stroke="black" stroke-opacity="0.8" stroke-width="2" stroke-linecap="round"/>
<path d="M20 3.33337C18.3432 3.33337 17 4.63921 17 6.25004C17 7.86087 18.3432 9.16671 20 9.16671C20.7683 9.16671 21.4692 8.88587 22 8.42404" stroke="black" stroke-opacity="0.8" stroke-width="2" stroke-linecap="round"/>
<path d="M16.667 13.3334H16.6805M23.3337 13.3334H23.3472" stroke="black" stroke-opacity="0.8" stroke-width="2" stroke-linecap="round"/>
</svg>
