<svg width="25" height="24" viewBox="0 0 25 24" fill="none" xmlns="http://www.w3.org/2000/svg">
<path d="M22.5 6.75H19.7111C19.11 6.75 18.8094 6.75 18.526 6.66418C18.2426 6.57837 17.9925 6.41165 17.4923 6.0782C16.7421 5.57803 15.8862 5.00745 15.461 4.87872C15.0359 4.75 14.585 4.75 13.6833 4.75C12.4571 4.75 11.6667 4.75 11.1154 4.97836C10.5641 5.20672 10.1306 5.64027 9.26347 6.50736L8.50039 7.27044C8.30498 7.46585 8.20727 7.56356 8.14695 7.66002C7.92335 8.01761 7.94813 8.47705 8.20889 8.80851C8.27924 8.89793 8.38689 8.98456 8.60218 9.15782C9.39796 9.79824 10.5452 9.73432 11.2658 9.00942L12.5 7.76786H13.5L19.5 13.8036C20.0523 14.3592 20.0523 15.2599 19.5 15.8155C18.9477 16.3711 18.0523 16.3711 17.5 15.8155L17 15.3125M14 12.2947L17 15.3125L14 12.2947ZM17 15.3125C17.5523 15.8681 17.5523 16.7689 17 17.3244C16.4477 17.88 15.5523 17.88 15 17.3244L14 16.3185M14 16.3185C14.5523 16.874 14.5523 17.7748 14 18.3304C13.4477 18.8859 12.5523 18.8859 12 18.3304L10.5 16.8214M14 16.3185L12 14.3185L14 16.3185ZM10 16.3185L10.5 16.8214L10 16.3185ZM10.5 16.8214C11.0523 17.377 11.0523 18.2778 10.5 18.8334C9.94772 19.3889 9.05229 19.3889 8.5 18.8334L5.67637 15.9509C5.09615 15.3586 4.80604 15.0625 4.43435 14.9062C4.06266 14.75 3.64808 14.75 2.81894 14.75H2.5" fill="#91368A"/>
<path d="M22.5 6.75H19.7111C19.11 6.75 18.8094 6.75 18.526 6.66418C18.2426 6.57837 17.9925 6.41165 17.4923 6.0782C16.7421 5.57803 15.8862 5.00745 15.461 4.87872C15.0359 4.75 14.585 4.75 13.6833 4.75C12.4571 4.75 11.6667 4.75 11.1154 4.97836C10.5641 5.20672 10.1306 5.64027 9.26347 6.50736L8.50039 7.27044C8.30498 7.46585 8.20727 7.56356 8.14695 7.66002C7.92335 8.01761 7.94813 8.47705 8.20889 8.80851C8.27924 8.89793 8.38689 8.98456 8.60218 9.15782C9.39796 9.79824 10.5452 9.73432 11.2658 9.00942L12.5 7.76786H13.5L19.5 13.8036C20.0523 14.3592 20.0523 15.2599 19.5 15.8155C18.9477 16.3711 18.0523 16.3711 17.5 15.8155L17 15.3125M17 15.3125L14 12.2947M17 15.3125C17.5523 15.8681 17.5523 16.7689 17 17.3244C16.4477 17.88 15.5523 17.88 15 17.3244L14 16.3185M14 16.3185C14.5523 16.874 14.5523 17.7748 14 18.3304C13.4477 18.8859 12.5523 18.8859 12 18.3304L10.5 16.8214M14 16.3185L12 14.3185M10.5 16.8214L10 16.3185M10.5 16.8214C11.0523 17.377 11.0523 18.2778 10.5 18.8334C9.94772 19.3889 9.05229 19.3889 8.5 18.8334L5.67637 15.9509C5.09615 15.3586 4.80604 15.0625 4.43435 14.9062C4.06266 14.75 3.64808 14.75 2.81894 14.75H2.5" stroke="#91368A" stroke-width="1.5" stroke-linecap="round" stroke-linejoin="round"/>
<path d="M22.5 14.75H20" stroke="#91368A" stroke-width="1.5" stroke-linecap="round"/>
<path d="M9 6.75H2.5" stroke="#91368A" stroke-width="1.5" stroke-linecap="round"/>
</svg>
