<svg width="80" height="80" viewBox="0 0 80 80" fill="none" xmlns="http://www.w3.org/2000/svg">
<rect width="80" height="80" rx="40" fill="#91368A" fill-opacity="0.1"/>
<path d="M46.6667 23.3334V28.3334M30 23.3334V28.3334" stroke="black" stroke-opacity="0.8" stroke-width="2" stroke-linecap="round" stroke-linejoin="round"/>
<path d="M53.334 41.6667V39.1667C53.334 32.8813 53.334 29.7386 51.3813 27.786C49.4288 25.8334 46.286 25.8334 40.0007 25.8334H36.6673C30.3819 25.8334 27.2392 25.8334 25.2866 27.786C23.334 29.7386 23.334 32.8813 23.334 39.1667V43.3334C23.334 49.6187 23.334 52.7615 25.2866 54.714C27.2392 56.6667 30.3819 56.6667 36.6673 56.6667H39.1673" stroke="black" stroke-opacity="0.8" stroke-width="2" stroke-linecap="round" stroke-linejoin="round"/>
<path d="M43.334 52.5C43.334 52.5 45.5815 53.3445 46.6673 56.6666C46.6673 56.6666 51.9615 48.3333 56.6673 46.6666" stroke="black" stroke-opacity="0.8" stroke-width="2" stroke-linecap="round" stroke-linejoin="round"/>
<path d="M24.166 34.1666H52.4994" stroke="black" stroke-opacity="0.8" stroke-width="2" stroke-linecap="round" stroke-linejoin="round"/>
</svg>
