<svg width="80" height="80" viewBox="0 0 80 80" fill="none" xmlns="http://www.w3.org/2000/svg">
<rect width="80" height="80" rx="40" fill="#91368A" fill-opacity="0.1"/>
<path d="M33.9926 24.2533C36.4508 22.7302 38.5963 23.344 39.8851 24.3217C40.4136 24.7225 40.6778 24.923 40.8333 24.923C40.9888 24.923 41.253 24.7225 41.7815 24.3217C43.0703 23.344 45.2158 22.7302 47.674 24.2533C50.9001 26.2521 51.6301 32.8465 44.1888 38.41C42.7715 39.4697 42.0628 39.9993 40.8333 39.9993C39.6038 39.9993 38.8951 39.4697 37.4778 38.41C30.0365 32.8465 30.7665 26.2521 33.9926 24.2533Z" stroke="black" stroke-opacity="0.8" stroke-width="2" stroke-linecap="round"/>
<path d="M26.6666 43.3333H30.658C31.1482 43.3333 31.6318 43.4438 32.0702 43.6559L35.4735 45.3026C35.912 45.5148 36.3955 45.6251 36.8858 45.6251H38.6235C40.3041 45.6251 41.6666 46.9436 41.6666 48.5699C41.6666 48.6356 41.6216 48.6934 41.5563 48.7114L37.3215 49.8824C36.5617 50.0924 35.7483 50.0193 35.0416 49.6773L31.4035 47.9171" stroke="black" stroke-opacity="0.8" stroke-width="2" stroke-linecap="round" stroke-linejoin="round"/>
<path d="M41.6666 47.5L49.3213 45.1482C50.6783 44.7254 52.1451 45.2267 52.9951 46.4039C53.6098 47.2549 53.3595 48.4737 52.4641 48.9904L39.9381 56.2175C39.1415 56.6772 38.2015 56.7894 37.3253 56.5294L26.6666 53.3665" stroke="black" stroke-opacity="0.8" stroke-width="2" stroke-linecap="round" stroke-linejoin="round"/>
</svg>
