<svg width="26" height="26" viewBox="0 0 26 26" fill="none" xmlns="http://www.w3.org/2000/svg">
<path d="M21.8761 14.0823C23.6711 17.1913 22.606 21.1666 19.497 22.9615C16.3881 24.7565 12.4128 23.6913 10.6178 20.5823M21.8761 14.0823C20.0812 10.9735 16.106 9.90829 12.997 11.7032C9.88809 13.4982 8.82291 17.4735 10.6178 20.5823M21.8761 14.0823L10.6178 20.5823" stroke="black" stroke-opacity="0.9" stroke-width="1.5"/>
<path d="M10.8799 6.00395L16.3886 2.74893C18.4168 1.55046 21.0103 2.26168 22.1813 4.33749C23.1221 6.00516 22.8585 8.04621 21.6668 9.4058M10.8799 6.00395L5.37116 9.25897C3.34292 10.4574 2.64798 13.1118 3.81899 15.1875C4.52306 16.4357 5.74134 17.1904 7.04182 17.3334M10.8799 6.00395L12.4585 8.66675" stroke="black" stroke-opacity="0.9" stroke-width="1.5" stroke-linecap="round" stroke-linejoin="round"/>
</svg>
