<svg width="54" height="54" viewBox="0 0 54 54" fill="none" xmlns="http://www.w3.org/2000/svg">
<rect width="54" height="54" rx="8" fill="#F4A7B9" fill-opacity="0.1"/>
<rect x="0.5" y="0.5" width="53" height="53" rx="7.5" stroke="#F4A7B9" stroke-opacity="0.5"/>
<path d="M22.1941 14.4027C24.1607 13.1842 25.8771 13.6752 26.9081 14.4574C27.3309 14.7781 27.5423 14.9384 27.6667 14.9384C27.7911 14.9384 28.0024 14.7781 28.4252 14.4574C29.4563 13.6752 31.1727 13.1842 33.1392 14.4027C35.7201 16.0018 36.3041 21.2773 30.3511 25.7281C29.2172 26.5758 28.6503 26.9995 27.6667 26.9995C26.6831 26.9995 26.1161 26.5758 24.9823 25.7281C19.0293 21.2773 19.6132 16.0018 22.1941 14.4027Z" stroke="black" stroke-opacity="0.85" stroke-width="1.8" stroke-linecap="round"/>
<path d="M16.3333 29.6666H19.5264C19.9186 29.6666 20.3054 29.755 20.6562 29.9248L23.3789 31.2421C23.7297 31.4118 24.1165 31.5001 24.5087 31.5001H25.8988C27.2433 31.5001 28.3333 32.5549 28.3333 33.856C28.3333 33.9085 28.2973 33.9548 28.2451 33.9692L24.8572 34.906C24.2494 35.074 23.5987 35.0154 23.0333 34.7418L20.1228 33.3337" stroke="black" stroke-opacity="0.85" stroke-width="1.8" stroke-linecap="round" stroke-linejoin="round"/>
<path d="M28.3333 33L34.4571 31.1186C35.5427 30.7803 36.7161 31.1814 37.3961 32.1231C37.8879 32.8039 37.6876 33.779 36.9713 34.1923L26.9505 39.974C26.3132 40.3418 25.5612 40.4315 24.8603 40.2235L16.3333 37.6932" stroke="black" stroke-opacity="0.85" stroke-width="1.8" stroke-linecap="round" stroke-linejoin="round"/>
</svg>
