<svg width="80" height="80" viewBox="0 0 80 80" fill="none" xmlns="http://www.w3.org/2000/svg">
<rect width="80" height="80" rx="40" fill="white"/>
<path d="M30.8333 25.8333H27.5C26.5795 25.8333 25.8333 26.5795 25.8333 27.4999V33.3333C25.8333 38.3959 29.9374 42.4999 35 42.4999C40.0627 42.4999 44.1667 38.3959 44.1667 33.3333V27.4999C44.1667 26.5795 43.4205 25.8333 42.5 25.8333H39.1667" stroke="#890085" stroke-width="2" stroke-linecap="round" stroke-linejoin="round"/>
<path d="M50.8333 45.8333V47.9167C50.8333 52.289 47.289 55.8333 42.9167 55.8333C38.5443 55.8333 35 52.289 35 47.9167V42.5" stroke="#890085" stroke-width="2" stroke-linecap="round" stroke-linejoin="round"/>
<path d="M39.1667 24.1667V27.5001" stroke="#890085" stroke-width="2" stroke-linecap="round" stroke-linejoin="round"/>
<path d="M30.8333 24.1667V27.5001" stroke="#890085" stroke-width="2" stroke-linecap="round" stroke-linejoin="round"/>
<path d="M54.1667 42.5001C54.1667 44.3411 52.6743 45.8334 50.8333 45.8334C48.9923 45.8334 47.5 44.3411 47.5 42.5001C47.5 40.6591 48.9923 39.1667 50.8333 39.1667C52.6743 39.1667 54.1667 40.6591 54.1667 42.5001Z" stroke="#890085" stroke-width="2"/>
</svg>
