<svg width="54" height="55" viewBox="0 0 54 55" fill="none" xmlns="http://www.w3.org/2000/svg">
<rect y="0.5" width="54" height="54" rx="8" fill="#F4A7B9" fill-opacity="0.1"/>
<rect x="0.5" y="1" width="53" height="53" rx="7.5" stroke="#F4A7B9" stroke-opacity="0.5"/>
<path d="M14.334 15.5026H39.6673" stroke="black" stroke-opacity="0.85" stroke-width="1.8" stroke-linecap="round" stroke-linejoin="round"/>
<path d="M17 15.5026V30.168C17 33.273 17.5741 34.287 20.2367 35.8846L24.256 38.2962C25.5929 39.0982 26.2613 39.4994 27 39.4994C27.7387 39.4994 28.4071 39.0982 29.744 38.2962L33.7633 35.8846C36.4259 34.287 37 33.273 37 30.168V15.5026" stroke="black" stroke-opacity="0.85" stroke-width="1.8" stroke-linecap="round" stroke-linejoin="round"/>
<path d="M27.8069 22.1739L28.6281 23.83C28.7401 24.0605 29.0388 24.2817 29.2907 24.324L30.7792 24.5733C31.7311 24.7333 31.9551 25.4296 31.2692 26.1165L30.112 27.2832C29.916 27.4808 29.8087 27.862 29.8693 28.1348L30.2007 29.5792C30.4619 30.7224 29.86 31.1647 28.8568 30.5672L27.4616 29.7344C27.2096 29.5839 26.7943 29.5839 26.5377 29.7344L25.1425 30.5672C24.1439 31.1647 23.5373 30.7177 23.7987 29.5792L24.1299 28.1348C24.1906 27.862 24.0833 27.4808 23.8873 27.2832L22.7301 26.1165C22.0489 25.4296 22.2682 24.7333 23.2201 24.5733L24.7085 24.324C24.9559 24.2817 25.2545 24.0605 25.3665 23.83L26.1877 22.1739C26.6357 21.2754 27.3636 21.2754 27.8069 22.1739Z" stroke="black" stroke-opacity="0.85" stroke-width="1.8" stroke-linecap="round" stroke-linejoin="round"/>
</svg>
