<svg width="32" height="33" viewBox="0 0 32 33" fill="none" xmlns="http://www.w3.org/2000/svg">
<path d="M18.6667 21.8333C18.6667 19.3192 18.6667 18.0621 19.4478 17.2811C20.2288 16.5 21.4859 16.5 24 16.5C26.5142 16.5 27.7712 16.5 28.5523 17.2811C29.3334 18.0621 29.3334 19.3192 29.3334 21.8333C29.3334 24.3475 29.3334 25.6045 28.5523 26.3856C27.7712 27.1667 26.5142 27.1667 24 27.1667C21.4859 27.1667 20.2288 27.1667 19.4478 26.3856C18.6667 25.6045 18.6667 24.3475 18.6667 21.8333Z" fill="#890085" stroke="#890085" stroke-width="1.5"/>
<path d="M18.6667 21.8333V16.3167C18.6667 11.4275 22.021 7.28104 26.6667 5.83325" stroke="#890085" stroke-width="1.5" stroke-linecap="round"/>
<path d="M2.66666 21.8333C2.66666 19.3192 2.66666 18.0621 3.44771 17.2811C4.22875 16.5 5.48583 16.5 7.99999 16.5C10.5141 16.5 11.7712 16.5 12.5523 17.2811C13.3333 18.0621 13.3333 19.3192 13.3333 21.8333C13.3333 24.3475 13.3333 25.6045 12.5523 26.3856C11.7712 27.1667 10.5141 27.1667 7.99999 27.1667C5.48583 27.1667 4.22875 27.1667 3.44771 26.3856C2.66666 25.6045 2.66666 24.3475 2.66666 21.8333Z" fill="#890085" stroke="#890085" stroke-width="1.5"/>
<path d="M2.66666 21.8333V16.3167C2.66666 11.4275 6.02094 7.28104 10.6667 5.83325" stroke="#890085" stroke-width="1.5" stroke-linecap="round"/>
</svg>
