<svg width="40" height="40" viewBox="0 0 40 40" fill="none" xmlns="http://www.w3.org/2000/svg">
<path d="M18.333 30H24.9997M22.4997 13.3334H24.0712C26.2552 13.3334 27.3473 13.3334 28.2732 13.8576C29.199 14.3818 29.8163 15.3496 31.051 17.2852C31.9167 18.6424 32.8255 19.6275 34.1033 20.504C35.3898 21.3864 36.0017 21.8177 36.3412 22.51C36.6663 23.173 36.6663 23.9584 36.6663 25.5289C36.6663 27.5994 36.6663 28.6347 36.0847 29.2925C36.0597 29.3209 36.0342 29.3484 36.0078 29.375C35.3955 30 34.432 30 32.5047 30H31.6663" stroke="black" stroke-opacity="0.8" stroke-width="2" stroke-linecap="round" stroke-linejoin="round"/>
<path d="M8.33301 30C5.97599 30 4.79747 30 4.06524 29.2679C3.33301 28.5355 3.33301 27.357 3.33301 25V13.3334C3.33301 10.9764 3.33301 9.79784 4.06524 9.06561C4.79747 8.33337 5.97599 8.33337 8.33301 8.33337H17.4997C19.8567 8.33337 21.0352 8.33337 21.7675 9.06561C22.4997 9.79784 22.4997 10.9764 22.4997 13.3334V30H14.9997" stroke="black" stroke-opacity="0.8" stroke-width="2" stroke-linecap="round" stroke-linejoin="round"/>
<path d="M36.6667 25H35" stroke="black" stroke-opacity="0.8" stroke-width="2" stroke-linecap="round" stroke-linejoin="round"/>
<path d="M13.3333 15V21.6667M16.6667 18.3333H10" stroke="black" stroke-opacity="0.8" stroke-width="2" stroke-linecap="round" stroke-linejoin="round"/>
<path d="M28.3333 33.3333C30.1743 33.3333 31.6667 31.8409 31.6667 30C31.6667 28.159 30.1743 26.6666 28.3333 26.6666C26.4924 26.6666 25 28.159 25 30C25 31.8409 26.4924 33.3333 28.3333 33.3333Z" stroke="black" stroke-opacity="0.8" stroke-width="2"/>
<path d="M11.6663 33.3333C13.5073 33.3333 14.9997 31.8409 14.9997 30C14.9997 28.159 13.5073 26.6666 11.6663 26.6666C9.82539 26.6666 8.33301 28.159 8.33301 30C8.33301 31.8409 9.82539 33.3333 11.6663 33.3333Z" stroke="black" stroke-opacity="0.8" stroke-width="2"/>
</svg>
