<svg width="40" height="40" viewBox="0 0 40 40" fill="none" xmlns="http://www.w3.org/2000/svg">
<path d="M11.667 36.6666V20.6635C11.667 18.8831 11.667 17.993 12.0746 17.2463C12.4822 16.4997 13.231 16.0183 14.7286 15.0556L18.1978 12.8254C19.0732 12.2627 19.5108 11.9813 20.0003 11.9813C20.4898 11.9813 20.9275 12.2627 21.8028 12.8254L25.272 15.0556C26.7697 16.0183 27.5183 16.4997 27.926 17.2463C28.3337 17.993 28.3337 18.8831 28.3337 20.6635V36.6666" stroke="black" stroke-opacity="0.8" stroke-width="2" stroke-linecap="round" stroke-linejoin="round"/>
<path d="M20 21.6666H20.015" stroke="black" stroke-opacity="0.8" stroke-width="2.5" stroke-linecap="round" stroke-linejoin="round"/>
<path d="M34.9997 36.6666V26.9371C34.9997 23.1178 32.901 22.8086 28.333 21.6666" stroke="black" stroke-opacity="0.8" stroke-width="2.5" stroke-linecap="round" stroke-linejoin="round"/>
<path d="M5 36.6666V26.9371C5 23.1178 7.0986 22.8086 11.6667 21.6666" stroke="black" stroke-opacity="0.8" stroke-width="2" stroke-linecap="round" stroke-linejoin="round"/>
<path d="M3.33301 36.6666H36.6663" stroke="black" stroke-opacity="0.8" stroke-width="2" stroke-linecap="round" stroke-linejoin="round"/>
<path d="M20 36.6667V30" stroke="black" stroke-opacity="0.8" stroke-width="2" stroke-linecap="round"/>
<path d="M20 11.6667V8.30373M20 8.30373V4.95063C20 4.1603 20 3.76513 20.244 3.5196C21.0102 2.74903 24.1667 4.57176 25.3672 5.31093C26.3808 5.93513 26.6667 7.18195 26.6667 8.30373H20Z" stroke="black" stroke-opacity="0.8" stroke-width="2" stroke-linecap="round" stroke-linejoin="round"/>
</svg>
