<svg width="80" height="80" viewBox="0 0 80 80" fill="none" xmlns="http://www.w3.org/2000/svg">
<rect width="80" height="80" rx="40" fill="#91368A" fill-opacity="0.1"/>
<path d="M23.9196 42.0225C23.3313 38.1937 23.0371 36.2794 23.7609 34.5823C24.4848 32.8852 26.0907 31.7241 29.3026 29.4018L31.7023 27.6667C35.6978 24.7778 37.6955 23.3334 40.0007 23.3334C42.3058 23.3334 44.3035 24.7778 48.299 27.6667L50.6988 29.4018C53.9106 31.7241 55.5165 32.8852 56.2403 34.5823C56.9641 36.2794 56.67 38.1937 56.0816 42.0225L55.58 45.2874C54.7458 50.7149 54.3288 53.4287 52.3823 55.0477C50.4358 56.6667 47.5902 56.6667 41.8987 56.6667H38.1027C32.4112 56.6667 29.5655 56.6667 27.619 55.0477C25.6725 53.4287 25.2554 50.7149 24.4214 45.2874L23.9196 42.0225Z" stroke="black" stroke-opacity="0.8" stroke-width="2" stroke-linejoin="round"/>
<path d="M40 36.6666V46.6666M35 41.6666H45" stroke="black" stroke-opacity="0.8" stroke-width="2" stroke-linecap="round"/>
</svg>
