<svg width="40" height="40" viewBox="0 0 40 40" fill="none" xmlns="http://www.w3.org/2000/svg">
<path d="M28.333 19.6741C28.333 19.098 28.333 18.81 28.4197 18.5533C28.6717 17.8073 29.336 17.518 30.0015 17.2148C30.7497 16.874 31.1237 16.7036 31.4943 16.6736C31.9152 16.6396 32.3367 16.7303 32.6963 16.9321C33.1732 17.1996 33.5057 17.7081 33.8462 18.1216C35.4185 20.0313 36.2045 20.9863 36.4922 22.0393C36.7243 22.889 36.7243 23.7776 36.4922 24.6273C36.0727 26.1631 34.7472 27.4506 33.766 28.6423C33.2642 29.2518 33.0132 29.5566 32.6963 29.7345C32.3367 29.9363 31.9152 30.027 31.4943 29.993C31.1237 29.963 30.7497 29.7926 30.0015 29.4518C29.336 29.1486 28.6717 28.8593 28.4197 28.1133C28.333 27.8566 28.333 27.5686 28.333 26.9925V19.6741Z" stroke="black" stroke-opacity="0.8" stroke-width="2"/>
<path d="M11.6663 19.6744C11.6663 18.949 11.646 18.297 11.0595 17.787C10.8462 17.6015 10.5634 17.4727 9.99786 17.215C9.24969 16.8744 8.87561 16.704 8.50494 16.674C7.39286 16.584 6.79454 17.343 6.15322 18.122C4.58092 20.0317 3.79477 20.9865 3.50711 22.0395C3.27497 22.8894 3.27497 23.778 3.50711 24.6277C3.92667 26.1635 5.25221 27.4509 6.23336 28.6427C6.85182 29.3939 7.44262 30.0792 8.50494 29.9934C8.87561 29.9634 9.24969 29.7929 9.99786 29.4522C10.5634 29.1945 10.8462 29.0657 11.0595 28.8802C11.646 28.3702 11.6663 27.7184 11.6663 26.9929V19.6744Z" stroke="black" stroke-opacity="0.8" stroke-width="2"/>
<path d="M33.3337 17.5V15C33.3337 8.55672 27.3642 3.33337 20.0003 3.33337C12.6365 3.33337 6.66699 8.55672 6.66699 15V17.5" stroke="black" stroke-opacity="0.8" stroke-width="2" stroke-linecap="round" stroke-linejoin="round"/>
<path d="M33.3333 29.1666C33.3333 36.6666 26.6667 36.6666 20 36.6666" stroke="black" stroke-opacity="0.8" stroke-width="2" stroke-linecap="round" stroke-linejoin="round"/>
</svg>
