<svg width="146" height="32" viewBox="0 0 146 32" fill="none" xmlns="http://www.w3.org/2000/svg">
<mask id="path-1-inside-1_21_1892" fill="white">
<path d="M0 0H146V32H0V0Z"/>
</mask>
<path d="M1 32V0H-1V32H1Z" fill="#9B4094" mask="url(#path-1-inside-1_21_1892)"/>
<path d="M30.1706 24.8905C34.3536 24.6125 37.6856 21.2332 37.9598 16.9909C38.0134 16.1607 38.0134 15.3009 37.9598 14.4707C37.6856 10.2284 34.3536 6.84913 30.1706 6.57107C28.7435 6.47621 27.2536 6.47641 25.8294 6.57107C21.6464 6.84913 18.3144 10.2284 18.0402 14.4707C17.9866 15.3009 17.9866 16.1607 18.0402 16.9909C18.1401 18.536 18.8234 19.9666 19.6279 21.1746C20.095 22.0203 19.7867 23.0758 19.3002 23.9978C18.9494 24.6626 18.774 24.995 18.9148 25.2351C19.0557 25.4752 19.3703 25.4829 19.9994 25.4982C21.2437 25.5285 22.0827 25.1757 22.7487 24.6846C23.1264 24.4061 23.3153 24.2668 23.4454 24.2508C23.5756 24.2348 23.8318 24.3403 24.344 24.5513C24.8044 24.7409 25.339 24.8579 25.8294 24.8905C27.2536 24.9852 28.7435 24.9854 30.1706 24.8905Z" fill="#872C80" stroke="#872C80" stroke-width="1.5" stroke-linejoin="round"/>
<path d="M53.5735 20.5V11.946H50.5215V10.56H58.1375V11.946H55.0855V20.5H53.5735ZM61.0254 20.668C60.2974 20.668 59.6674 20.5093 59.1354 20.192C58.6127 19.8747 58.2067 19.422 57.9174 18.834C57.6374 18.246 57.4974 17.56 57.4974 16.776C57.4974 15.992 57.6374 15.3107 57.9174 14.732C58.2067 14.144 58.6127 13.6913 59.1354 13.374C59.6581 13.0473 60.2741 12.884 60.9834 12.884C61.6554 12.884 62.2481 13.0427 62.7614 13.36C63.2747 13.668 63.6714 14.116 63.9514 14.704C64.2407 15.292 64.3854 16.0013 64.3854 16.832V17.21H59.0374C59.0747 17.938 59.2661 18.484 59.6114 18.848C59.9661 19.212 60.4421 19.394 61.0394 19.394C61.4781 19.394 61.8421 19.2913 62.1314 19.086C62.4207 18.8807 62.6214 18.6053 62.7334 18.26L64.2734 18.358C64.0774 19.0487 63.6901 19.6087 63.1114 20.038C62.5421 20.458 61.8467 20.668 61.0254 20.668ZM59.0374 16.09H62.8174C62.7707 15.4273 62.5794 14.9373 62.2434 14.62C61.9167 14.3027 61.4967 14.144 60.9834 14.144C60.4514 14.144 60.0127 14.312 59.6674 14.648C59.3314 14.9747 59.1214 15.4553 59.0374 16.09ZM68.4791 20.668C67.7791 20.668 67.1864 20.5607 66.7011 20.346C66.2251 20.1313 65.8564 19.8373 65.5951 19.464C65.3338 19.0813 65.1844 18.6427 65.1471 18.148L66.6731 18.078C66.7478 18.4887 66.9251 18.8153 67.2051 19.058C67.4851 19.3007 67.9098 19.422 68.4791 19.422C68.9458 19.422 69.3144 19.3473 69.5851 19.198C69.8558 19.0487 69.9911 18.8107 69.9911 18.484C69.9911 18.3067 69.9444 18.1573 69.8511 18.036C69.7671 17.9053 69.5991 17.798 69.3471 17.714C69.0951 17.6207 68.7218 17.532 68.2271 17.448C67.4898 17.308 66.9111 17.1447 66.4911 16.958C66.0711 16.7713 65.7724 16.5333 65.5951 16.244C65.4178 15.9547 65.3291 15.6047 65.3291 15.194C65.3291 14.5127 65.5811 13.9573 66.0851 13.528C66.5984 13.0987 67.3358 12.884 68.2971 12.884C68.9411 12.884 69.4824 12.996 69.9211 13.22C70.3598 13.4347 70.7004 13.7287 70.9431 14.102C71.1951 14.466 71.3538 14.8767 71.4191 15.334L69.8931 15.418C69.8464 15.1567 69.7531 14.9327 69.6131 14.746C69.4824 14.55 69.3051 14.4007 69.0811 14.298C68.8571 14.186 68.5911 14.13 68.2831 14.13C67.8071 14.13 67.4524 14.2233 67.2191 14.41C66.9858 14.5967 66.8691 14.8393 66.8691 15.138C66.8691 15.362 66.9204 15.544 67.0231 15.684C67.1351 15.824 67.3124 15.9407 67.5551 16.034C67.7978 16.118 68.1198 16.1927 68.5211 16.258C69.2958 16.3887 69.9024 16.552 70.3411 16.748C70.7798 16.9347 71.0878 17.168 71.2651 17.448C71.4424 17.728 71.5311 18.0687 71.5311 18.47C71.5311 18.9367 71.4004 19.3333 71.1391 19.66C70.8778 19.9867 70.5184 20.2387 70.0611 20.416C69.6038 20.584 69.0764 20.668 68.4791 20.668ZM75.3355 20.5C74.6262 20.5 74.1035 20.3367 73.7675 20.01C73.4315 19.6833 73.2635 19.1747 73.2635 18.484V11.302H74.7475V18.372C74.7475 18.7173 74.8222 18.9553 74.9715 19.086C75.1208 19.2167 75.3495 19.282 75.6575 19.282H76.7215V20.5H75.3355ZM72.1295 14.27V13.052H76.7215V14.27H72.1295ZM77.8596 20.5V13.052H79.3436V20.5H77.8596ZM77.8316 11.974V10.49H79.3716V11.974H77.8316ZM81.2847 20.5V13.052H82.6427L82.6847 14.9L82.5167 14.844C82.6007 14.4333 82.7454 14.0833 82.9507 13.794C83.1654 13.5047 83.4267 13.2807 83.7347 13.122C84.0427 12.9633 84.3787 12.884 84.7427 12.884C85.3774 12.884 85.8954 13.066 86.2967 13.43C86.6981 13.7847 86.9501 14.2747 87.0527 14.9H86.8147C86.8987 14.4613 87.0387 14.0973 87.2347 13.808C87.4401 13.5093 87.7014 13.2807 88.0187 13.122C88.3361 12.9633 88.6954 12.884 89.0967 12.884C89.6194 12.884 90.0627 12.996 90.4267 13.22C90.8001 13.4347 91.0801 13.752 91.2667 14.172C91.4627 14.592 91.5607 15.1053 91.5607 15.712V20.5H90.0767V16.076C90.0767 15.432 89.9601 14.9467 89.7267 14.62C89.4934 14.2933 89.1387 14.13 88.6627 14.13C88.3547 14.13 88.0841 14.2093 87.8507 14.368C87.6174 14.5267 87.4354 14.7553 87.3047 15.054C87.1834 15.3527 87.1227 15.712 87.1227 16.132V20.5H85.7087V16.132C85.7087 15.4973 85.6014 15.0073 85.3867 14.662C85.1814 14.3073 84.8267 14.13 84.3227 14.13C84.0054 14.13 83.7301 14.2093 83.4967 14.368C83.2727 14.5267 83.0954 14.76 82.9647 15.068C82.8341 15.3667 82.7687 15.7213 82.7687 16.132V20.5H81.2847ZM96.2934 20.668C95.5841 20.668 94.9634 20.5093 94.4314 20.192C93.8994 19.8747 93.4887 19.422 93.1994 18.834C92.9101 18.246 92.7654 17.56 92.7654 16.776C92.7654 15.9827 92.9101 15.2967 93.1994 14.718C93.4887 14.1393 93.8994 13.6913 94.4314 13.374C94.9634 13.0473 95.5841 12.884 96.2934 12.884C97.0027 12.884 97.6234 13.0473 98.1554 13.374C98.6874 13.6913 99.0981 14.1393 99.3874 14.718C99.6767 15.2967 99.8214 15.9827 99.8214 16.776C99.8214 17.56 99.6767 18.246 99.3874 18.834C99.0981 19.422 98.6874 19.8747 98.1554 20.192C97.6234 20.5093 97.0027 20.668 96.2934 20.668ZM96.2934 19.38C96.9281 19.38 97.4181 19.1513 97.7634 18.694C98.1087 18.2273 98.2814 17.588 98.2814 16.776C98.2814 15.964 98.1087 15.3293 97.7634 14.872C97.4181 14.4053 96.9281 14.172 96.2934 14.172C95.6681 14.172 95.1781 14.4053 94.8234 14.872C94.4781 15.3293 94.3054 15.964 94.3054 16.776C94.3054 17.588 94.4781 18.2273 94.8234 18.694C95.1781 19.1513 95.6681 19.38 96.2934 19.38ZM101.041 20.5V13.052H102.399L102.455 15.04L102.273 14.942C102.357 14.4567 102.516 14.0647 102.749 13.766C102.982 13.4673 103.267 13.248 103.603 13.108C103.939 12.9587 104.303 12.884 104.695 12.884C105.255 12.884 105.717 13.01 106.081 13.262C106.454 13.5047 106.734 13.8407 106.921 14.27C107.117 14.69 107.215 15.1707 107.215 15.712V20.5H105.731V16.16C105.731 15.7213 105.684 15.3527 105.591 15.054C105.498 14.7553 105.344 14.5267 105.129 14.368C104.914 14.2093 104.634 14.13 104.289 14.13C103.766 14.13 103.342 14.3027 103.015 14.648C102.688 14.9933 102.525 15.4973 102.525 16.16V20.5H101.041ZM108.896 20.5V13.052H110.38V20.5H108.896ZM108.868 11.974V10.49H110.408V11.974H108.868ZM114.147 20.668C113.373 20.668 112.752 20.4907 112.285 20.136C111.828 19.7813 111.599 19.282 111.599 18.638C111.599 17.994 111.791 17.4947 112.173 17.14C112.565 16.776 113.167 16.5147 113.979 16.356L116.541 15.866C116.541 15.2873 116.406 14.858 116.135 14.578C115.865 14.2887 115.463 14.144 114.931 14.144C114.455 14.144 114.082 14.2513 113.811 14.466C113.541 14.6713 113.354 14.9793 113.251 15.39L111.725 15.292C111.865 14.5453 112.211 13.9573 112.761 13.528C113.321 13.0987 114.045 12.884 114.931 12.884C115.939 12.884 116.705 13.1547 117.227 13.696C117.759 14.228 118.025 14.9793 118.025 15.95V18.848C118.025 19.0253 118.053 19.1513 118.109 19.226C118.175 19.2913 118.277 19.324 118.417 19.324H118.683V20.5C118.637 20.5093 118.562 20.5187 118.459 20.528C118.357 20.5373 118.249 20.542 118.137 20.542C117.82 20.542 117.545 20.4907 117.311 20.388C117.087 20.2853 116.919 20.1173 116.807 19.884C116.695 19.6413 116.639 19.3193 116.639 18.918L116.793 18.988C116.719 19.3147 116.555 19.604 116.303 19.856C116.061 20.108 115.748 20.3087 115.365 20.458C114.992 20.598 114.586 20.668 114.147 20.668ZM114.385 19.492C114.833 19.492 115.216 19.408 115.533 19.24C115.851 19.0627 116.098 18.82 116.275 18.512C116.453 18.204 116.541 17.854 116.541 17.462V16.986L114.357 17.406C113.909 17.49 113.592 17.6253 113.405 17.812C113.228 17.9893 113.139 18.218 113.139 18.498C113.139 18.8153 113.247 19.0627 113.461 19.24C113.685 19.408 113.993 19.492 114.385 19.492ZM121.185 20.5C120.699 20.5 120.307 20.374 120.009 20.122C119.71 19.87 119.561 19.4687 119.561 18.918V10.56H121.045V18.778C121.045 18.946 121.087 19.072 121.171 19.156C121.264 19.24 121.395 19.282 121.563 19.282H122.151V20.5H121.185ZM126.006 20.668C125.306 20.668 124.713 20.5607 124.228 20.346C123.752 20.1313 123.383 19.8373 123.122 19.464C122.861 19.0813 122.711 18.6427 122.674 18.148L124.2 18.078C124.275 18.4887 124.452 18.8153 124.732 19.058C125.012 19.3007 125.437 19.422 126.006 19.422C126.473 19.422 126.841 19.3473 127.112 19.198C127.383 19.0487 127.518 18.8107 127.518 18.484C127.518 18.3067 127.471 18.1573 127.378 18.036C127.294 17.9053 127.126 17.798 126.874 17.714C126.622 17.6207 126.249 17.532 125.754 17.448C125.017 17.308 124.438 17.1447 124.018 16.958C123.598 16.7713 123.299 16.5333 123.122 16.244C122.945 15.9547 122.856 15.6047 122.856 15.194C122.856 14.5127 123.108 13.9573 123.612 13.528C124.125 13.0987 124.863 12.884 125.824 12.884C126.468 12.884 127.009 12.996 127.448 13.22C127.887 13.4347 128.227 13.7287 128.47 14.102C128.722 14.466 128.881 14.8767 128.946 15.334L127.42 15.418C127.373 15.1567 127.28 14.9327 127.14 14.746C127.009 14.55 126.832 14.4007 126.608 14.298C126.384 14.186 126.118 14.13 125.81 14.13C125.334 14.13 124.979 14.2233 124.746 14.41C124.513 14.5967 124.396 14.8393 124.396 15.138C124.396 15.362 124.447 15.544 124.55 15.684C124.662 15.824 124.839 15.9407 125.082 16.034C125.325 16.118 125.647 16.1927 126.048 16.258C126.823 16.3887 127.429 16.552 127.868 16.748C128.307 16.9347 128.615 17.168 128.792 17.448C128.969 17.728 129.058 18.0687 129.058 18.47C129.058 18.9367 128.927 19.3333 128.666 19.66C128.405 19.9867 128.045 20.2387 127.588 20.416C127.131 20.584 126.603 20.668 126.006 20.668Z" fill="#91368A"/>
</svg>
