<svg width="20" height="19" viewBox="0 0 20 19" fill="none" xmlns="http://www.w3.org/2000/svg">
<g id="Component 4">
<path id="Vector" d="M7.04468 2.375C7.15306 2.37505 7.26027 2.39734 7.35968 2.44051C7.45909 2.48368 7.54858 2.5468 7.6226 2.62596L7.68277 2.69879L11.0663 7.31263L15.7736 2.60696C15.9161 2.46497 16.1072 2.38254 16.3083 2.3764C16.5093 2.37026 16.7052 2.44088 16.856 2.57391C17.0069 2.70693 17.1015 2.8924 17.1205 3.09263C17.1396 3.29286 17.0818 3.49284 16.9587 3.65196L16.893 3.72637L12.014 8.60463L16.9714 15.3655C17.0535 15.4775 17.1046 15.6092 17.1198 15.7472C17.1349 15.8853 17.1134 16.0249 17.0575 16.152C17.0016 16.2792 16.9132 16.3894 16.8012 16.4716C16.6893 16.5537 16.5577 16.605 16.4196 16.6202L16.3333 16.625H12.9553C12.8469 16.625 12.7397 16.6027 12.6403 16.5595C12.5409 16.5163 12.4514 16.4532 12.3773 16.374L12.3172 16.3012L8.93201 11.6866L4.22635 16.393C4.08388 16.535 3.89271 16.6175 3.69167 16.6236C3.49063 16.6297 3.29478 16.5591 3.14392 16.4261C2.99306 16.2931 2.89848 16.1076 2.87941 15.9074C2.86033 15.7071 2.91819 15.5072 3.04122 15.348L3.10693 15.2736L7.98439 10.3946L3.02856 3.63454C2.94647 3.52251 2.8953 3.39085 2.88019 3.25278C2.86508 3.11471 2.88655 2.9751 2.94246 2.84796C2.99837 2.72082 3.08675 2.61063 3.19871 2.52844C3.31068 2.44626 3.4423 2.39498 3.58035 2.37975L3.66664 2.375H7.04468Z" fill="black" fill-opacity="0.9"/>
</g>
</svg>
