<svg width="40" height="40" viewBox="0 0 40 40" fill="none" xmlns="http://www.w3.org/2000/svg">
<path d="M32.4991 33.3334V27.5C34.3093 27.5 35.3318 27.5 35.6976 26.7095C36.0635 25.9192 35.6588 24.838 34.8491 22.676L32.7793 17.1482C32.0951 15.3209 30.6965 14.1667 29.1666 14.1667C27.6368 14.1667 26.2381 15.3209 25.554 17.1482L23.4841 22.676C22.6745 24.838 22.2698 25.9192 22.6356 26.7095C23.0015 27.5 24.0221 27.5 25.8325 27.5V33.3334C25.8325 34.9047 25.8325 35.6904 26.3206 36.1785C26.8088 36.6667 27.5945 36.6667 29.1658 36.6667C30.7371 36.6667 31.5228 36.6667 32.011 36.1785C32.4991 35.6904 32.4991 34.9047 32.4991 33.3334Z" stroke="black" stroke-opacity="0.8" stroke-width="2" stroke-linejoin="round"/>
<path d="M14.1667 6.66665C14.1667 8.5076 12.6743 9.99998 10.8333 9.99998C8.99238 9.99998 7.5 8.5076 7.5 6.66665C7.5 4.8257 8.99238 3.33331 10.8333 3.33331C12.6743 3.33331 14.1667 4.8257 14.1667 6.66665Z" stroke="black" stroke-opacity="0.8" stroke-width="2" stroke-linecap="round" stroke-linejoin="round"/>
<path d="M32.4997 6.66665C32.4997 8.5076 31.0073 9.99998 29.1663 9.99998C27.3253 9.99998 25.833 8.5076 25.833 6.66665C25.833 4.8257 27.3253 3.33331 29.1663 3.33331C31.0073 3.33331 32.4997 4.8257 32.4997 6.66665Z" stroke="black" stroke-opacity="0.8" stroke-width="2" stroke-linecap="round" stroke-linejoin="round"/>
<path d="M17.5003 20.8334C17.5003 17.6907 17.5003 16.1193 16.524 15.143C15.5477 14.1667 13.9764 14.1667 10.8337 14.1667C7.69096 14.1667 6.11961 14.1667 5.14331 15.143C4.16699 16.1193 4.16699 17.6907 4.16699 20.8334V24.1667C4.16699 25.738 4.16699 26.5237 4.65514 27.0119C5.14331 27.5 5.92898 27.5 7.50033 27.5V33.3334C7.50033 34.9047 7.50033 35.6904 7.98848 36.1785C8.47664 36.6667 9.26231 36.6667 10.8337 36.6667C12.405 36.6667 13.1907 36.6667 13.6788 36.1785C14.167 35.6904 14.167 34.9047 14.167 33.3334V27.5C15.7383 27.5 16.524 27.5 17.0122 27.0119C17.5003 26.5237 17.5003 25.738 17.5003 24.1667V20.8334Z" stroke="black" stroke-opacity="0.8" stroke-width="2" stroke-linejoin="round"/>
</svg>
