<svg width="23" height="22" viewBox="0 0 23 22" fill="none" xmlns="http://www.w3.org/2000/svg">
<g id="Frame">
<path id="Vector" d="M11.5 20.1668C16.5626 20.1668 20.6667 16.0627 20.6667 11.0002C20.6667 5.93755 16.5626 1.8335 11.5 1.8335C6.43738 1.8335 2.33333 5.93755 2.33333 11.0002C2.33333 12.2642 2.58914 13.4684 3.05183 14.5639C3.30754 15.1693 3.4354 15.472 3.45123 15.7008C3.46706 15.9296 3.39972 16.1813 3.26505 16.6846L2.33333 20.1668L5.81553 19.2351C6.31888 19.1005 6.57056 19.0331 6.79935 19.049C7.02814 19.0647 7.33086 19.1926 7.93632 19.4483C9.03182 19.911 10.236 20.1668 11.5 20.1668Z" fill="black"/>
<g id="Vector_2">
<path d="M8.37248 11.3457L9.17084 10.3541C9.50732 9.93623 9.92325 9.5472 9.95588 8.99074C9.96404 8.8502 9.86522 8.21919 9.66741 6.95721C9.58968 6.46125 9.12663 6.4165 8.72555 6.4165C8.20288 6.4165 7.94155 6.4165 7.68204 6.53504C7.35405 6.68486 7.01731 7.10612 6.94341 7.45906C6.88495 7.7383 6.9284 7.93072 7.0153 8.31555C7.38438 9.95007 8.25025 11.5643 9.59286 12.907C10.9355 14.2496 12.5498 15.1155 14.1843 15.4845C14.5691 15.5714 14.7615 15.6149 15.0408 15.5564C15.3937 15.4825 15.8149 15.1458 15.9648 14.8178C16.0833 14.5582 16.0833 14.297 16.0833 13.7743C16.0833 13.3732 16.0386 12.9102 15.5426 12.8324C14.2806 12.6346 13.6497 12.5358 13.5091 12.544C12.9526 12.5766 12.5636 12.9925 12.1457 13.329L11.1541 14.1273" fill="white"/>
<path d="M8.37248 11.3457L9.17084 10.3541C9.50732 9.93623 9.92325 9.5472 9.95588 8.99074C9.96404 8.8502 9.86522 8.21919 9.66741 6.95721C9.58968 6.46125 9.12663 6.4165 8.72555 6.4165C8.20288 6.4165 7.94155 6.4165 7.68204 6.53504C7.35405 6.68486 7.01731 7.10612 6.94341 7.45906C6.88495 7.7383 6.9284 7.93072 7.0153 8.31555C7.38438 9.95007 8.25025 11.5643 9.59286 12.907C10.9355 14.2496 12.5498 15.1155 14.1843 15.4845C14.5691 15.5714 14.7615 15.6149 15.0408 15.5564C15.3937 15.4825 15.8149 15.1458 15.9648 14.8178C16.0833 14.5582 16.0833 14.297 16.0833 13.7743C16.0833 13.3732 16.0386 12.9102 15.5426 12.8324C14.2806 12.6346 13.6497 12.5358 13.5091 12.544C12.9526 12.5766 12.5636 12.9925 12.1457 13.329L11.1541 14.1273" stroke="white" stroke-width="1.5"/>
</g>
</g>
</svg>
